# xmcd
#
# Track frame offsets:
#	150
#	16053
#	29623
#	47266
#	66345
#	78626
#	97025
#	112928
#	129460
#	148719
#	166466
#	179607
#	195115
#	212887
#	227674
#
# Disc length: 3255 seconds
#
# Revision: 1
# Processed by: cddbd v1.5.2PL0 Copyright (c) Steve Scherf et al.
# Submitted via: audiograbber 1.83.01
#
DISCID=ca0cb50f
DTITLE=Gary Allan - Greatest Hits
DYEAR=2007
DGENRE=Country
TTITLE0=A feelin like that
TTITLE1=Right where I need to be
TTITLE2=Songs about rain
TTITLE3=Smoke rings in the dark
TTITLE4=Her man
TTITLE5=Best I ever had
TTITLE6=Nothing on but the radio
TTITLE7=Man to man
TTITLE8=The one
TTITLE9=Lonin' you against my will
TTITLE10=It would be you
TTITLE11=Man of me
TTITLE12=Tough little boys
TTITLE13=As the crow flys
TTITLE14=Life ain't always beautiful
EXTD=
EXTT0=
EXTT1=
EXTT2=
EXTT3=
EXTT4=
EXTT5=
EXTT6=
EXTT7=
EXTT8=
EXTT9=
EXTT10=
EXTT11=
EXTT12=
EXTT13=
EXTT14=
PLAYORDER=
